<svg width="134" height="1206" viewBox="0 0 134 1206" fill="none" xmlns="http://www.w3.org/2000/svg">
<g filter="url(#filter0_ddii_20_29)">
<path d="M112.83 769.373C115.938 827.414 108.428 1022.62 104.5 1094.5C99.2542 1190.5 65 1188 51.5 1184.5C30 1175.5 23.0192 1142.39 15.1925 999.157C11.2645 927.273 68.7556 824.137 68.7556 749.613C57.9819 652.505 43.9848 538.123 48.6773 461.677C56.7367 330.379 89.3237 -19.9102 104.485 20.1749C127.522 62.5185 81.2643 360.302 89.3237 491.599C94.0162 568.046 105.484 632.18 112.83 769.373Z" fill="url(#paint0_linear_20_29)"/>
<path d="M69.2556 749.613V749.585L69.2526 749.557C68.3706 741.607 67.467 733.542 66.5539 725.392C56.3112 633.964 44.871 531.846 49.1764 461.707C53.2055 396.068 63.3664 275.679 74.4149 176.713C79.9394 127.227 85.6845 83.1106 90.9943 53.8743C93.6513 39.2444 96.1925 28.3817 98.5302 22.4346C99.1137 20.9501 99.6769 19.7921 100.215 18.9647C100.765 18.1205 101.241 17.6942 101.621 17.554C101.797 17.4894 101.952 17.485 102.104 17.5288C102.262 17.5746 102.449 17.6828 102.66 17.8948C103.091 18.328 103.552 19.1199 104.018 20.3518L104.03 20.3838L104.046 20.4139C106.87 25.6039 108.663 34.7909 109.619 47.2417C110.572 59.6681 110.687 75.267 110.202 93.2215C109.231 129.13 105.861 174.412 102.022 222.49C101.354 230.863 100.671 239.321 99.9842 247.829C92.7855 336.997 85.1434 431.658 88.8247 491.63C90.7353 522.757 93.7691 551.845 97.1892 584.638C97.9704 592.128 98.7718 599.812 99.5845 607.757C103.956 650.491 108.659 700.814 112.331 769.4C115.437 827.409 107.929 1022.58 104.001 1094.47C101.379 1142.44 91.5124 1165.66 80.7413 1176.46C70.0358 1187.2 58.3411 1185.75 51.6599 1184.02C41.1775 1179.62 34.1097 1169.32 28.7092 1142.07C23.3062 1114.8 19.6055 1070.75 15.6917 999.13C13.7337 963.297 27.0878 919.637 40.978 875.525C41.412 874.147 41.8466 872.768 42.2812 871.389C55.7379 828.692 69.2556 785.801 69.2556 749.613Z" stroke="#F6EEEE"/>
</g>
<defs>
<filter id="filter0_ddii_20_29" x="0" y="0" width="133.565" height="1205.72" filterUnits="userSpaceOnUse" color-interpolation-filters="sRGB">
<feFlood flood-opacity="0" result="BackgroundImageFix"/>
<feColorMatrix in="SourceAlpha" type="matrix" values="0 0 0 0 0 0 0 0 0 0 0 0 0 0 0 0 0 0 127 0" result="hardAlpha"/>
<feOffset dx="5" dy="5"/>
<feGaussianBlur stdDeviation="7.5"/>
<feComposite in2="hardAlpha" operator="out"/>
<feColorMatrix type="matrix" values="0 0 0 0 0.401736 0 0 0 0 0.139931 0 0 0 0 0.139931 0 0 0 0.21 0"/>
<feBlend mode="normal" in2="BackgroundImageFix" result="effect1_dropShadow_20_29"/>
<feColorMatrix in="SourceAlpha" type="matrix" values="0 0 0 0 0 0 0 0 0 0 0 0 0 0 0 0 0 0 127 0" result="hardAlpha"/>
<feOffset dx="-5" dy="-7"/>
<feGaussianBlur stdDeviation="5"/>
<feComposite in2="hardAlpha" operator="out"/>
<feColorMatrix type="matrix" values="0 0 0 0 0.97724 0 0 0 0 0.918781 0 0 0 0 0.831094 0 0 0 0.37 0"/>
<feBlend mode="normal" in2="effect1_dropShadow_20_29" result="effect2_dropShadow_20_29"/>
<feBlend mode="normal" in="SourceGraphic" in2="effect2_dropShadow_20_29" result="shape"/>
<feColorMatrix in="SourceAlpha" type="matrix" values="0 0 0 0 0 0 0 0 0 0 0 0 0 0 0 0 0 0 127 0" result="hardAlpha"/>
<feOffset dx="5" dy="5"/>
<feGaussianBlur stdDeviation="6"/>
<feComposite in2="hardAlpha" operator="arithmetic" k2="-1" k3="1"/>
<feColorMatrix type="matrix" values="0 0 0 0 0.917454 0 0 0 0 0.98434 0 0 0 0 0.832326 0 0 0 1 0"/>
<feBlend mode="normal" in2="shape" result="effect3_innerShadow_20_29"/>
<feColorMatrix in="SourceAlpha" type="matrix" values="0 0 0 0 0 0 0 0 0 0 0 0 0 0 0 0 0 0 127 0" result="hardAlpha"/>
<feOffset dx="-10" dy="-10"/>
<feGaussianBlur stdDeviation="7.5"/>
<feComposite in2="hardAlpha" operator="arithmetic" k2="-1" k3="1"/>
<feColorMatrix type="matrix" values="0 0 0 0 0.453056 0 0 0 0 0.0136111 0 0 0 0 0.0136113 0 0 0 0.17 0"/>
<feBlend mode="normal" in2="effect3_innerShadow_20_29" result="effect4_innerShadow_20_29"/>
</filter>
<linearGradient id="paint0_linear_20_29" x1="64" y1="17" x2="64" y2="1177" gradientUnits="userSpaceOnUse">
<stop stop-color="#E6B2B2"/>
<stop offset="0.770833" stop-color="#A2D495"/>
<stop offset="1" stop-color="#FFC328"/>
</linearGradient>
</defs>
</svg>
